<svg xmlns="http://www.w3.org/2000/svg" xmlns:xlink="http://www.w3.org/1999/xlink" version="1.1" x="0px" y="0px" viewBox="0 0 50 62.5" enable-background="new 0 0 50 50" xml:space="preserve"><g><path d="M20.4,46.7c1-1,1.6-2.3,1.8-3.8c0.5-3.6,2.8-7,6.3-8.2c0.6-0.2,1.1-0.5,1.4-0.8c0.9-0.9,1.8-2.5,1.8-4   c0-0.6-0.9-0.5-1.5-0.7c-1.4-0.3-6-2-4.9-3L42,9.6l0.2,0.2c0.3,0.3,0.9,0.3,1.3-0.1L44,9.1l1.2,1.2L45,10.5l0.5,0.5l0.9-0.9   l-0.5-0.5l-0.2,0.2l-1.2-1.2l1-1l1.2,1.2l-0.2,0.2l0.5,0.5l0.9-0.9l-0.5-0.5L47,8.5l-1.2-1.2l0.9-0.8l1.2,1.2l-0.2,0.2l0.5,0.5   L49,7.5L48.5,7l-0.2,0.2L47.1,6l0.6-0.6c0.4-0.4,0.4-0.9,0-1.3l-0.4-0.4c-0.2-0.2-0.6-0.3-0.9-0.2l-1,0.3l-1.8-1.8l0.2-0.2   l-0.5-0.5l-0.9,0.9L43,2.8l0.2-0.2l1.6,1.6l-1.5,0.5l-1.1-1.1l0.2-0.2L42,2.8l-0.9,0.9l0.5,0.5l0.2-0.2l0.9,0.9l-2.6,0.9   c-0.7,0.2-0.9,1.1-0.5,1.5L40,7.6L23.1,24.5c-1.6-0.4-3-3.7-2.9-5.1c0.1-0.7,0-1.6-0.7-1.6c-1.4,0.1-2.9,0.9-3.9,1.8   c-0.3,0.3-0.6,0.8-0.8,1.4c-1.2,3.5-4.6,5.8-8.2,6.3c-1.5,0.2-2.8,0.8-3.8,1.8c-3.3,3.3-2.1,9.9,2.7,14.8   C10.4,48.8,17.1,50,20.4,46.7z M45.9,5.2c0.1-0.1,0.4-0.1,0.5,0c0.1,0.1,0.1,0.4,0,0.5c-0.1,0.1-0.4,0.1-0.5,0   C45.8,5.6,45.8,5.4,45.9,5.2z M44.7,6.5c0.1-0.1,0.4-0.1,0.5,0c0.1,0.1,0.1,0.2,0.1,0.3c0,0.1,0,0.1-0.1,0.2   c-0.1,0.1-0.3,0.1-0.5,0C44.5,6.9,44.6,6.6,44.7,6.5z M43.5,7.7c0.1-0.1,0.4-0.1,0.5,0c0.1,0.1,0.1,0.4,0,0.5v0   c-0.2,0.2-0.4,0.1-0.5,0C43.3,8.1,43.3,7.8,43.5,7.7z M15.4,28c1.7-1.7,4.4-1.7,6.1,0c1.7,1.7,1.7,4.4,0,6.1   c-1.7,1.7-4.4,1.7-6.1,0C13.7,32.5,13.7,29.7,15.4,28z M9.5,34l0.1-0.1c0.3-0.3,0.7-0.3,1,0l5,5c0.3,0.3,0.3,0.7,0,1L15.5,40   c-0.3,0.3-0.7,0.3-1,0l-5-5C9.2,34.8,9.2,34.3,9.5,34z M7,36.6L7,36.6c0.4-0.4,0.8-0.4,1.1-0.1l5,5c0.3,0.3,0.3,0.7,0,1L13,42.6   c-0.3,0.3-0.7,0.3-1,0l-5-5C6.7,37.3,6.7,36.8,7,36.6z"/><circle cx="18.5" cy="31.1" r="2.9"/></g><text x="0" y="65" fill="#000000" font-size="5px" font-weight="bold" font-family="'Helvetica Neue', Helvetica, Arial-Unicode, Arial, Sans-serif">Created by Vectors Market</text><text x="0" y="70" fill="#000000" font-size="5px" font-weight="bold" font-family="'Helvetica Neue', Helvetica, Arial-Unicode, Arial, Sans-serif">from the Noun Project</text></svg>