<svg height="682pt" viewBox="-139 -21 682 682.66669" width="682pt" xmlns="http://www.w3.org/2000/svg"><path d="m219.632812 423.378906h-18.75v-18.75h18.75zm-31.25 0h-18.75v-18.75h18.75zm0 0"/><path d="m194.632812 0c-111.453124 0-202.132812 90.828125-202.132812 202.476562v9.375h126.796875v-9.375c0-41.625 33.792969-75.488281 75.335937-75.488281 41.542969 0 75.34375 33.863281 75.34375 75.488281s-33.800781 75.488282-75.34375 75.488282h-63.398437v42.035156h18.75v-23.285156h44.648437c51.882813 0 94.09375-42.277344 94.09375-94.238282 0-51.964843-42.210937-94.238281-94.09375-94.238281-48.71875 0-88.914062 37.277344-93.625 84.863281h-89.523437c4.886719-96.972656 85.167969-174.351562 183.148437-174.351562 101.121094 0 183.386719 82.417969 183.386719 183.726562 0 81.082032-54.277343 153.617188-132 176.386719l-6.738281 1.972657v67.542968h-89.296875v-103.378906h-18.75v122.128906h126.796875v-72.382812c38.394531-12.761719 72.808594-37.363282 97.480469-69.820313 26.988281-35.492187 41.257812-77.835937 41.257812-122.449219 0-111.648437-90.679687-202.476562-202.136719-202.476562zm0 0"/><path d="m131.234375 640h126.796875v-35.179688h-18.75v16.429688h-89.296875v-89.292969h89.296875v47.863281h18.75v-66.613281h-126.796875zm0 0"/><path d="m359.269531 202.476562c0-90.96875-73.855469-164.976562-164.636719-164.976562v18.75c80.441407 0 145.886719 65.59375 145.886719 146.226562zm0 0"/></svg>